M48
;Layer_Color=9474304
;FILE_FORMAT=2:4
METRIC,LZ
;TYPE=PLATED
T1F00S00C0.2000
T2F00S00C0.7000
T3F00S00C0.7112
T4F00S00C1.0000
T5F00S00C1.0200
%
T01
X-199651Y-033366
Y-015016
X-190476Y-005841
X-181301Y-015016
X-172126Y-005841
X-162951Y-015016
X-172126Y-024191
X-162951Y-033366
X-181301
X-190476Y-024191
Y-042541
X-172126
T02
X-111747Y-230977
X-091747
X-039105Y-230977
X-019105
T03
X194911Y-263036
X261022Y-125836
X266255Y-111172
X269896Y-0798
X248776Y-074837
X352686Y-078359
X348109Y-110542
X378853Y-09856
X387397Y-115927
X405391Y-113351
X439823Y-112649
X41827Y-042987
X387726Y007217
X368303Y-191168
X149208Y-200002
X064356Y-266975
X092657Y-051294
X08967Y012013
X026931Y-001152
X-04545Y026672
X-349814Y012729
X-336316Y-008473
X-360158Y-031751
X-362219Y-051485
X-382974Y-098674
X-332569Y-1236
X-322061Y-082613
X-29278Y-144982
X-334415Y089901
X-350759Y08893
X-296607Y162362
X-269594Y158983
X-274503Y221214
X-05541Y187072
X-019575Y252787
X007853Y144996
X194757Y217497
X245494Y217142
X302187Y218628
X386414Y119599
T04
X-41855Y-181051
Y-136051
X-35355
Y-181051
X-342321Y115359
Y160359
X-407321
Y115359
T05
X-039127Y-036549
X114227Y-101278
X154871Y-100144
X-309977Y-048151
X-310834Y-006056
X-387141Y006177
Y-019223
Y-044623
Y-070023
Y031577
Y056978
X018989Y223286
Y248686
X056161Y250226
Y224826
M30
