G04*
G04 #@! TF.GenerationSoftware,Altium Limited,Altium Designer,22.5.1 (42)*
G04*
G04 Layer_Color=16711935*
%FSLAX44Y44*%
%MOMM*%
G71*
G04*
G04 #@! TF.SameCoordinates,196CC927-6612-49A9-9877-457204B07366*
G04*
G04*
G04 #@! TF.FilePolarity,Negative*
G04*
G01*
G75*
%ADD61R,1.5732X1.5732*%
%ADD62C,0.5032*%
%ADD63C,1.4032*%
%ADD64R,1.4032X1.4032*%
%ADD65R,1.7032X1.7032*%
%ADD66C,1.7032*%
%ADD67R,1.7332X1.7332*%
%ADD68C,1.7332*%
%ADD69R,1.5732X1.5732*%
%ADD70C,1.5732*%
%ADD71C,1.4732*%
D61*
X-309977Y-48151D02*
D03*
X-310834Y-6056D02*
D03*
X56161Y224826D02*
D03*
X18989Y223286D02*
D03*
D62*
X-190476Y-5841D02*
D03*
X-172126D02*
D03*
X-199651Y-15016D02*
D03*
X-181301D02*
D03*
X-162951D02*
D03*
X-190476Y-24191D02*
D03*
X-172126D02*
D03*
X-199651Y-33366D02*
D03*
X-181301D02*
D03*
X-162951D02*
D03*
X-190476Y-42541D02*
D03*
X-172126D02*
D03*
D63*
X-91747Y-230977D02*
D03*
X-19105Y-230977D02*
D03*
D64*
X-111747Y-230977D02*
D03*
X-39105Y-230977D02*
D03*
D65*
X-418550Y-136051D02*
D03*
X-342321Y115359D02*
D03*
D66*
X-353550Y-136051D02*
D03*
Y-181051D02*
D03*
X-407321Y115359D02*
D03*
Y160359D02*
D03*
D67*
X-387141Y-70023D02*
D03*
D68*
Y-44623D02*
D03*
Y-19223D02*
D03*
Y6177D02*
D03*
Y31577D02*
D03*
Y56978D02*
D03*
D69*
X-39127Y-36549D02*
D03*
X114227Y-101278D02*
D03*
X154871Y-100144D02*
D03*
D70*
X56161Y250226D02*
D03*
X18989Y248686D02*
D03*
D71*
X-19575Y252787D02*
D03*
X-274503Y221214D02*
D03*
X-269594Y158983D02*
D03*
X-296607Y162362D02*
D03*
X-332569Y-123600D02*
D03*
X-382974Y-98674D02*
D03*
X368303Y-191168D02*
D03*
X194911Y-263036D02*
D03*
X261022Y-125836D02*
D03*
X266255Y-111172D02*
D03*
X352686Y-78359D02*
D03*
X378853Y-98560D02*
D03*
X348109Y-110542D02*
D03*
X387397Y-115927D02*
D03*
X405391Y-113351D02*
D03*
X269896Y-79800D02*
D03*
X194757Y217497D02*
D03*
X245494Y217142D02*
D03*
X386414Y119599D02*
D03*
X302187Y218628D02*
D03*
X418270Y-42987D02*
D03*
X387726Y7217D02*
D03*
X439823Y-112649D02*
D03*
X7853Y144996D02*
D03*
X-55410Y187072D02*
D03*
X-45450Y26672D02*
D03*
X26931Y-1152D02*
D03*
X248776Y-74837D02*
D03*
X92657Y-51294D02*
D03*
X-350759Y88930D02*
D03*
X-349814Y12729D02*
D03*
X-336316Y-8473D02*
D03*
X-334415Y89901D02*
D03*
X-322061Y-82613D02*
D03*
X-362219Y-51485D02*
D03*
X-360158Y-31751D02*
D03*
X-292780Y-144982D02*
D03*
X89670Y12013D02*
D03*
X149208Y-200002D02*
D03*
X64356Y-266975D02*
D03*
M02*
