G04*
G04 #@! TF.GenerationSoftware,Altium Limited,Altium Designer,22.5.1 (42)*
G04*
G04 Layer_Color=8421504*
%FSLAX44Y44*%
%MOMM*%
G71*
G04*
G04 #@! TF.SameCoordinates,196CC927-6612-49A9-9877-457204B07366*
G04*
G04*
G04 #@! TF.FilePolarity,Positive*
G04*
G01*
G75*
G04:AMPARAMS|DCode=16|XSize=1.5242mm|YSize=0.578mm|CornerRadius=0.289mm|HoleSize=0mm|Usage=FLASHONLY|Rotation=90.000|XOffset=0mm|YOffset=0mm|HoleType=Round|Shape=RoundedRectangle|*
%AMROUNDEDRECTD16*
21,1,1.5242,0.0000,0,0,90.0*
21,1,0.9463,0.5780,0,0,90.0*
1,1,0.5780,0.0000,0.4731*
1,1,0.5780,0.0000,-0.4731*
1,1,0.5780,0.0000,-0.4731*
1,1,0.5780,0.0000,0.4731*
%
%ADD16ROUNDEDRECTD16*%
%ADD17R,0.5780X1.5242*%
%ADD18R,2.0000X0.9000*%
%ADD19R,0.9000X2.0000*%
%ADD20R,1.3300X1.3300*%
G04:AMPARAMS|DCode=21|XSize=1.5242mm|YSize=0.578mm|CornerRadius=0.289mm|HoleSize=0mm|Usage=FLASHONLY|Rotation=180.000|XOffset=0mm|YOffset=0mm|HoleType=Round|Shape=RoundedRectangle|*
%AMROUNDEDRECTD21*
21,1,1.5242,0.0000,0,0,180.0*
21,1,0.9463,0.5780,0,0,180.0*
1,1,0.5780,-0.4731,0.0000*
1,1,0.5780,0.4731,0.0000*
1,1,0.5780,0.4731,0.0000*
1,1,0.5780,-0.4731,0.0000*
%
%ADD21ROUNDEDRECTD21*%
%ADD22R,1.5242X0.5780*%
%ADD23R,1.6000X0.9000*%
%ADD24R,0.9500X2.6000*%
%ADD25R,0.7000X0.5000*%
%ADD26R,0.9000X1.6000*%
%ADD27R,2.6000X0.9500*%
%ADD28R,0.5000X0.6000*%
%ADD29R,0.8000X0.8000*%
%ADD30R,1.0000X1.0500*%
%ADD31R,1.0500X2.2000*%
G04:AMPARAMS|DCode=32|XSize=0.4mm|YSize=1.2mm|CornerRadius=0.05mm|HoleSize=0mm|Usage=FLASHONLY|Rotation=270.000|XOffset=0mm|YOffset=0mm|HoleType=Round|Shape=RoundedRectangle|*
%AMROUNDEDRECTD32*
21,1,0.4000,1.1000,0,0,270.0*
21,1,0.3000,1.2000,0,0,270.0*
1,1,0.1000,-0.5500,-0.1500*
1,1,0.1000,-0.5500,0.1500*
1,1,0.1000,0.5500,0.1500*
1,1,0.1000,0.5500,-0.1500*
%
%ADD32ROUNDEDRECTD32*%
%ADD33R,0.5000X0.4000*%
%ADD34R,0.6500X1.1500*%
%ADD35R,0.4500X1.3000*%
%ADD36R,1.4000X1.7000*%
%ADD37R,0.5400X0.8000*%
%ADD38R,1.5000X4.0000*%
%ADD39R,1.5000X1.0000*%
%ADD40R,2.0000X0.5000*%
%ADD41R,0.5000X2.0000*%
%ADD42R,1.0061X1.3082*%
D16*
X-126565Y169463D02*
D03*
X-117065Y151259D02*
D03*
X-179831Y169987D02*
D03*
X-170331Y151783D02*
D03*
X-213647Y-160603D02*
D03*
X-204147Y-178807D02*
D03*
D17*
X-136065Y151259D02*
D03*
X-189331Y151783D02*
D03*
X-223147Y-178807D02*
D03*
D18*
X-256301Y50809D02*
D03*
Y38109D02*
D03*
Y25409D02*
D03*
Y12709D02*
D03*
Y9D02*
D03*
Y-12691D02*
D03*
Y-25391D02*
D03*
Y-38091D02*
D03*
Y-50791D02*
D03*
Y-63491D02*
D03*
Y-76191D02*
D03*
Y-88891D02*
D03*
Y-101591D02*
D03*
Y-114291D02*
D03*
X-86301D02*
D03*
Y-101591D02*
D03*
Y-88891D02*
D03*
Y-76191D02*
D03*
Y-63491D02*
D03*
Y-50791D02*
D03*
Y-38091D02*
D03*
Y-25391D02*
D03*
Y-12691D02*
D03*
Y9D02*
D03*
Y12709D02*
D03*
Y25409D02*
D03*
Y38109D02*
D03*
Y50809D02*
D03*
D19*
X-228451Y-124291D02*
D03*
X-215751D02*
D03*
X-203051D02*
D03*
X-190351D02*
D03*
X-177651D02*
D03*
X-164951D02*
D03*
X-152251D02*
D03*
X-139551D02*
D03*
X-126851D02*
D03*
X-114151D02*
D03*
D20*
X-199651Y-5841D02*
D03*
X-181301D02*
D03*
X-162951D02*
D03*
X-199651Y-24191D02*
D03*
X-181301D02*
D03*
X-162951D02*
D03*
X-199651Y-42541D02*
D03*
X-181301D02*
D03*
X-162951D02*
D03*
D21*
X-318831Y-168914D02*
D03*
X-300627Y-159414D02*
D03*
X-267014Y-169033D02*
D03*
X-248810Y-159533D02*
D03*
X12559Y-95260D02*
D03*
X30763Y-85760D02*
D03*
X44580Y-165646D02*
D03*
X26377Y-175146D02*
D03*
X-299389Y-224530D02*
D03*
X-317593Y-234030D02*
D03*
X-215975Y-265950D02*
D03*
X-234179Y-275450D02*
D03*
D22*
X-300627Y-178414D02*
D03*
X-248810Y-178533D02*
D03*
X30763Y-104760D02*
D03*
X26377Y-156146D02*
D03*
X-317593Y-215030D02*
D03*
X-234179Y-256450D02*
D03*
D23*
X-313826Y98449D02*
D03*
Y71449D02*
D03*
Y24024D02*
D03*
Y51024D02*
D03*
X22451Y161148D02*
D03*
Y188148D02*
D03*
X-247571Y146010D02*
D03*
Y173010D02*
D03*
X-80528Y173953D02*
D03*
Y146953D02*
D03*
X56161Y163013D02*
D03*
Y190013D02*
D03*
X52898Y-9843D02*
D03*
Y-36843D02*
D03*
X-173081Y-153696D02*
D03*
Y-180697D02*
D03*
X-197575Y239994D02*
D03*
Y212994D02*
D03*
X68305Y-85234D02*
D03*
Y-112234D02*
D03*
X409617Y126424D02*
D03*
Y99424D02*
D03*
X-263925Y-281868D02*
D03*
Y-254868D02*
D03*
D24*
X-318891Y-267698D02*
D03*
X-290891D02*
D03*
X-22076Y3284D02*
D03*
X5924D02*
D03*
X25291Y-241123D02*
D03*
X53291D02*
D03*
X-50134Y-78032D02*
D03*
X-22134D02*
D03*
X-51393Y-116402D02*
D03*
X-23393D02*
D03*
X-84945Y-184205D02*
D03*
X-56946D02*
D03*
X-144531Y-184685D02*
D03*
X-116531D02*
D03*
X-310526Y243318D02*
D03*
X-282526D02*
D03*
X-22037Y121910D02*
D03*
X5963D02*
D03*
X-21159Y83942D02*
D03*
X6841D02*
D03*
X-21717Y44064D02*
D03*
X6283D02*
D03*
X-313664Y135630D02*
D03*
X-285664D02*
D03*
X-311420Y192755D02*
D03*
X-283421D02*
D03*
X192659Y-235929D02*
D03*
X164659D02*
D03*
X313509Y242578D02*
D03*
X341509D02*
D03*
D25*
X-181008Y-222180D02*
D03*
X-170008D02*
D03*
X5449Y-54611D02*
D03*
X16449D02*
D03*
D26*
X-204137Y-208495D02*
D03*
X-231137D02*
D03*
X60099Y-131848D02*
D03*
X33099D02*
D03*
X429828Y39648D02*
D03*
X402828D02*
D03*
X403096Y8815D02*
D03*
X430096D02*
D03*
X255552Y-95648D02*
D03*
X228552D02*
D03*
X184412Y-96218D02*
D03*
X211412D02*
D03*
X-239931Y-234014D02*
D03*
X-212931D02*
D03*
X94760Y-170409D02*
D03*
X121760D02*
D03*
X429322Y-65111D02*
D03*
X402322D02*
D03*
X402992Y-92163D02*
D03*
X429992D02*
D03*
X428655Y-23116D02*
D03*
X401655D02*
D03*
D27*
X-306178Y-125291D02*
D03*
Y-97291D02*
D03*
X389021Y-169280D02*
D03*
Y-141280D02*
D03*
X-174835Y-250876D02*
D03*
Y-278876D02*
D03*
D28*
X54436Y-55453D02*
D03*
X63436D02*
D03*
D29*
X9316Y-132201D02*
D03*
X-5684D02*
D03*
X173661Y-168861D02*
D03*
X158661D02*
D03*
X-167907Y-206077D02*
D03*
X-182907D02*
D03*
D30*
X225282Y227514D02*
D03*
X274801Y257826D02*
D03*
D31*
X240033Y242764D02*
D03*
X210532D02*
D03*
X260051Y242576D02*
D03*
X289551D02*
D03*
D32*
X74852Y-193182D02*
D03*
Y-199682D02*
D03*
Y-206182D02*
D03*
Y-212682D02*
D03*
Y-219182D02*
D03*
Y-225682D02*
D03*
Y-232182D02*
D03*
Y-238682D02*
D03*
Y-245182D02*
D03*
Y-251682D02*
D03*
X131852Y-193182D02*
D03*
Y-199682D02*
D03*
Y-206182D02*
D03*
Y-212682D02*
D03*
Y-219182D02*
D03*
Y-225682D02*
D03*
Y-232182D02*
D03*
Y-238682D02*
D03*
Y-245182D02*
D03*
Y-251682D02*
D03*
D33*
X282456Y-89064D02*
D03*
Y-95564D02*
D03*
Y-102064D02*
D03*
X301456D02*
D03*
Y-89064D02*
D03*
D34*
X302128Y-144057D02*
D03*
X276728D02*
D03*
X251328D02*
D03*
X314828D02*
D03*
X289428D02*
D03*
X264028D02*
D03*
D35*
X337278Y-165757D02*
D03*
Y-185757D02*
D03*
X211878D02*
D03*
Y-165757D02*
D03*
D36*
X335628Y-281357D02*
D03*
X213528D02*
D03*
D37*
X249178Y-275557D02*
D03*
X299978D02*
D03*
D38*
X-80164Y228292D02*
D03*
D39*
X-145164Y205292D02*
D03*
Y228292D02*
D03*
Y251292D02*
D03*
D40*
X119462Y151369D02*
D03*
Y141369D02*
D03*
Y131369D02*
D03*
Y121369D02*
D03*
Y111369D02*
D03*
Y101369D02*
D03*
Y91369D02*
D03*
Y81369D02*
D03*
Y71369D02*
D03*
Y61369D02*
D03*
Y51369D02*
D03*
Y41369D02*
D03*
Y31369D02*
D03*
Y21369D02*
D03*
Y11369D02*
D03*
Y1369D02*
D03*
Y-8631D02*
D03*
X359462D02*
D03*
Y1369D02*
D03*
Y11369D02*
D03*
Y21369D02*
D03*
Y31369D02*
D03*
Y41369D02*
D03*
Y51369D02*
D03*
Y61369D02*
D03*
Y71369D02*
D03*
Y81369D02*
D03*
Y91369D02*
D03*
Y101369D02*
D03*
Y111369D02*
D03*
Y121369D02*
D03*
Y131369D02*
D03*
Y141369D02*
D03*
Y151369D02*
D03*
D41*
X159462Y-48631D02*
D03*
X169462D02*
D03*
X179462D02*
D03*
X189462D02*
D03*
X199462D02*
D03*
X209462D02*
D03*
X219462D02*
D03*
X229462D02*
D03*
X239462D02*
D03*
X249462D02*
D03*
X259462D02*
D03*
X269462D02*
D03*
X279462D02*
D03*
X289462D02*
D03*
X299462D02*
D03*
X309462D02*
D03*
X319462D02*
D03*
Y191369D02*
D03*
X309462D02*
D03*
X299462D02*
D03*
X289462D02*
D03*
X279462D02*
D03*
X269462D02*
D03*
X259462D02*
D03*
X249462D02*
D03*
X239462D02*
D03*
X229462D02*
D03*
X219462D02*
D03*
X209462D02*
D03*
X199462D02*
D03*
X189462D02*
D03*
X179462D02*
D03*
X169462D02*
D03*
X159462D02*
D03*
D42*
X409384Y160306D02*
D03*
X394863D02*
D03*
M02*
